<svg width="66" height="66" viewBox="0 0 66 66" fill="none" xmlns="http://www.w3.org/2000/svg">
<g clip-path="url(#clip0_50_4)">
<g filter="url(#filter0_d_50_4)">
<path d="M53.4416 15.931H43.2471V5.68965C43.2471 4.94248 43.1006 4.20262 42.816 3.51232C42.5314 2.82202 42.1142 2.19479 41.5883 1.66646C41.0624 1.13813 40.438 0.719031 39.7509 0.433099C39.0638 0.147167 38.3273 0 37.5835 0H28.5217C27.0197 0 25.5791 0.599444 24.517 1.66646C23.4548 2.73348 22.8581 4.18066 22.8581 5.68965V15.931H12.6636C11.1615 15.931 9.72097 16.5305 8.65883 17.5975C7.5967 18.6645 7 20.1117 7 21.6207V30.7241C7 32.2331 7.5967 33.6803 8.65883 34.7473C9.72097 35.8143 11.1615 36.4138 12.6636 36.4138H22.8581V60.3103C22.8581 61.8193 23.4548 63.2665 24.517 64.3335C25.5791 65.4006 27.0197 66 28.5217 66H37.5835C38.3273 66 39.0638 65.8528 39.7509 65.5669C40.438 65.281 41.0624 64.8619 41.5883 64.3335C42.1142 63.8052 42.5314 63.178 42.816 62.4877C43.1006 61.7974 43.2471 61.0575 43.2471 60.3103V36.4138H53.4416C54.9437 36.4138 56.3843 35.8143 57.4464 34.7473C58.5086 33.6803 59.1053 32.2331 59.1053 30.7241V21.6207C59.1053 20.1117 58.5086 18.6645 57.4464 17.5975C56.3843 16.5305 54.9437 15.931 53.4416 15.931ZM52.3089 29.5862H42.1144C40.6123 29.5862 39.1718 30.1856 38.1096 31.2527C37.0475 32.3197 36.4508 33.7669 36.4508 35.2759V59.1724H29.6545V35.2759C29.6545 33.7669 29.0578 32.3197 27.9956 31.2527C26.9335 30.1856 25.4929 29.5862 23.9908 29.5862H13.7963V22.7586H23.9908C24.7346 22.7586 25.4711 22.6115 26.1582 22.3255C26.8454 22.0396 27.4697 21.6205 27.9956 21.0922C28.5215 20.5638 28.9387 19.9366 29.2233 19.2463C29.508 18.556 29.6545 17.8161 29.6545 17.069V6.82759H36.4508V17.069C36.4508 17.8161 36.5973 18.556 36.8819 19.2463C37.1665 19.9366 37.5837 20.5638 38.1096 21.0922C39.1718 22.1592 40.6123 22.7586 42.1144 22.7586H52.3089V29.5862Z" fill="#FFA000"/>
</g>
</g>
<defs>
<filter id="filter0_d_50_4" x="3" y="0" width="60.1053" height="74" filterUnits="userSpaceOnUse" color-interpolation-filters="sRGB">
<feFlood flood-opacity="0" result="BackgroundImageFix"/>
<feColorMatrix in="SourceAlpha" type="matrix" values="0 0 0 0 0 0 0 0 0 0 0 0 0 0 0 0 0 0 127 0" result="hardAlpha"/>
<feOffset dy="4"/>
<feGaussianBlur stdDeviation="2"/>
<feComposite in2="hardAlpha" operator="out"/>
<feColorMatrix type="matrix" values="0 0 0 0 0 0 0 0 0 0 0 0 0 0 0 0 0 0 0.25 0"/>
<feBlend mode="normal" in2="BackgroundImageFix" result="effect1_dropShadow_50_4"/>
<feBlend mode="normal" in="SourceGraphic" in2="effect1_dropShadow_50_4" result="shape"/>
</filter>
<clipPath id="clip0_50_4">
<rect width="66" height="66" fill="white"/>
</clipPath>
</defs>
</svg>
